# xmcd CD database file
#
# Track frame offsets:
#	150
#	21831
#	43800
#	61642
#	83868
#	111193
#	131003
#	151659
#	185020
#	215510
#	232638
#
# Disc length: 3295 seconds
#
# Revision: 0
# Processed by: cddbd v1.5.2PL0 Copyright (c) Steve Scherf et al.
# Submitted via: CDex 1.51
#
DISCID=870cdd0b
DTITLE=Chicago Six - Hello Sisters (Disk A)
DYEAR=2003
DGENRE=Jazz
TTITLE0=Homegrown Shuffle
TTITLE1=Comes Love
TTITLE2=Indian
TTITLE3=Carrying On
TTITLE4=Blue Big Bird
TTITLE5=Mercy, Mercy
TTITLE6=Weary Blues
TTITLE7=S"Wonderful"
TTITLE8=St. Louis Blues
TTITLE9=Natalia
TTITLE10=Old Man River
EXTD=YEAR: 2003
EXTT0=
EXTT1=
EXTT2=
EXTT3=
EXTT4=
EXTT5=
EXTT6=
EXTT7=
EXTT8=
EXTT9=
EXTT10=
PLAYORDER=
